<svg t="1697375644426" class="icon" viewBox="0 0 1024 1024" version="1.1" xmlns="http://www.w3.org/2000/svg" p-id="1518" width="200" height="200"><path d="M667.275636 667.834182H346.112a18.618182 18.618182 0 1 0 0 37.236363h321.163636a18.618182 18.618182 0 0 0 0-37.236363zM667.275636 591.313455H346.112a18.618182 18.618182 0 0 0 0 37.236363h321.163636a18.618182 18.618182 0 1 0 0-37.236363zM353.745455 552.215273h153.041454a18.618182 18.618182 0 0 0 0-37.236364H353.745455a18.618182 18.618182 0 0 0 0 37.236364z" p-id="1519"></path><path d="M724.992 217.646545a61.812364 61.812364 0 0 0-61.626182-57.902545H252.462545a61.998545 61.998545 0 0 0-61.998545 61.812364v524.288a61.998545 61.998545 0 0 0 49.152 60.509091 61.812364 61.812364 0 0 0 61.626182 57.902545h410.903273a61.998545 61.998545 0 0 0 61.998545-61.812364V278.155636a61.998545 61.998545 0 0 0-49.152-60.509091z m-479.604364 158.813091a18.618182 18.618182 0 0 0-1.489454 2.048l-1.861818 3.165091v384.465455a24.389818 24.389818 0 0 1-11.543273-20.293818V221.556364a24.762182 24.762182 0 0 1 24.762182-24.576h408.110545a24.203636 24.203636 0 0 1 23.645091 18.618181H430.638545a13.963636 13.963636 0 0 0-3.909818 0 17.128727 17.128727 0 0 0-8.936727 4.096z m160.116364-94.766545l-11.729455 83.781818a24.017455 24.017455 0 0 1-9.495272 16.384 24.762182 24.762182 0 0 1-18.618182 4.654546l-65.908364-9.12291z m331.403636 521.309091a24.762182 24.762182 0 0 1-24.762181 24.576H301.242182a24.762182 24.762182 0 0 1-24.762182-24.576v-390.981818l84.340364 11.915636a66.839273 66.839273 0 0 0 8.750545 0 61.812364 61.812364 0 0 0 61.067636-53.434182l16.384-117.294545h265.12291a24.948364 24.948364 0 0 1 24.762181 24.762182z" p-id="1520"></path><path d="M574.743273 442.740364a70.935273 70.935273 0 0 0 14.149818 8.750545l12.660364 5.771636v49.896728l-5.771637-2.420364a52.689455 52.689455 0 0 1-8.936727-5.771636l-7.261091-5.585455c-2.048-1.861818-4.096-3.351273-5.771636-4.654545a10.426182 10.426182 0 0 0-5.399273-1.861818 8.750545 8.750545 0 0 0-5.771636 2.048 11.357091 11.357091 0 0 0-3.537455 4.840727 13.032727 13.032727 0 0 0 1.489455 12.101818c2.420364 2.792727 4.654545 5.399273 7.074909 7.819636a46.173091 46.173091 0 0 0 7.819636 6.702546 45.614545 45.614545 0 0 0 10.426182 5.399273 91.042909 91.042909 0 0 0 14.149818 4.468363v10.053818a75.776 75.776 0 0 0 0 9.681455 16.570182 16.570182 0 0 0 3.165091 7.074909 8.564364 8.564364 0 0 0 7.074909 2.792727 11.357091 11.357091 0 0 0 6.516364-2.420363 12.846545 12.846545 0 0 0 4.282181-7.447273v-18.618182a123.810909 123.810909 0 0 0 17.128728-4.654545 55.854545 55.854545 0 0 0 15.639272-8.005819 42.635636 42.635636 0 0 0 11.357091-13.032727 38.539636 38.539636 0 0 0 4.282182-18.618182 31.278545 31.278545 0 0 0-4.282182-16.570181 43.194182 43.194182 0 0 0-11.357091-11.915637 65.722182 65.722182 0 0 0-15.45309-8.564363c-5.771636-2.420364-11.357091-4.654545-17.128728-6.702546v-23.458909-23.086545l5.399273 2.420363 7.074909 3.165091 7.447273 2.792727a19.921455 19.921455 0 0 0 6.888727 1.489455 10.612364 10.612364 0 0 0 7.819636-3.165091 10.24 10.24 0 0 0 2.97891-7.074909 11.543273 11.543273 0 0 0-4.654546-8.564364 40.96 40.96 0 0 0-10.798545-6.702545 113.012364 113.012364 0 0 0-12.474182-4.654546 71.866182 71.866182 0 0 0-9.681455-2.420363v-11.170909a48.779636 48.779636 0 0 0-1.861818-14.708364 8.192 8.192 0 0 0-8.936727-6.330182 8.564364 8.564364 0 0 0-9.309091 6.702546 59.019636 59.019636 0 0 0-1.861818 16.011636v8.936727a65.349818 65.349818 0 0 0-18.618182 5.026909 50.455273 50.455273 0 0 0-13.405091 9.309091 38.725818 38.725818 0 0 0-8.378182 12.474182 33.140364 33.140364 0 0 0-2.978909 13.963636 29.044364 29.044364 0 0 0 4.840727 16.197819 54.178909 54.178909 0 0 0 13.963637 12.288z m48.221091 44.869818V465.454545a82.106182 82.106182 0 0 1 12.474181 7.261091 123.066182 123.066182 0 0 1 10.24 8.192 13.405091 13.405091 0 0 1 2.606546 10.612364 15.266909 15.266909 0 0 1-5.771636 9.309091 90.670545 90.670545 0 0 1-10.612364 5.213091 43.380364 43.380364 0 0 1-9.122909 2.234182c0-5.585455 0-13.405091 0.186182-20.666182z m-37.236364-83.037091a25.506909 25.506909 0 0 1 5.213091-3.909818 22.341818 22.341818 0 0 1 5.771636-2.420364l5.399273-1.675636v37.236363a55.854545 55.854545 0 0 1-14.149818-9.867636 18.618182 18.618182 0 0 1-5.957818-13.777455 20.107636 20.107636 0 0 1 3.165091-5.585454z" p-id="1521"></path></svg>