<svg t="1697375744217" class="icon" viewBox="0 0 1024 1024" version="1.1" xmlns="http://www.w3.org/2000/svg" p-id="2132" width="200" height="200"><path d="M640 256v42.666667h-213.333333V234.666667c0-8.533333 0-12.8 4.266666-21.333334H298.666667v640h469.333333V213.333333h-132.266667c4.266667 8.533333 4.266667 12.8 4.266667 21.333334V256z m-170.666667 0h128v-21.333333c0-34.133333-29.866667-64-64-64S469.333333 200.533333 469.333333 234.666667V256z m-21.333333-85.333333c21.333333-25.6 51.2-42.666667 85.333333-42.666667s64 17.066667 85.333334 42.666667H810.666667v725.333333H256V170.666667h192z m-21.333333 298.666666h213.333333v42.666667h-213.333333v-42.666667z m0 85.333334h213.333333v42.666666h-213.333333v-42.666666z m0 85.333333h213.333333v42.666667h-213.333333v-42.666667z" fill="#444444" p-id="2133"></path></svg>