<svg t="1697375760148" class="icon" viewBox="0 0 1024 1024" version="1.1" xmlns="http://www.w3.org/2000/svg" p-id="2285" width="200" height="200"><path d="M897 896.2H128V647.1l20.1-7c17.5-6.1 33.8-21.4 45.9-42.9 13.5-23.9 20.9-54.3 20.9-85.4s-7.4-61.5-20.9-85.4c-12.1-21.5-28.4-36.8-45.9-42.9l-20.1-7V127.2h769v249l-20.9 6.6c-17.8 5.6-34.5 20.7-46.9 42.3-13.9 24.1-21.5 54.9-21.5 86.6 0 31.7 7.6 62.4 21.5 86.6 12.5 21.7 29.1 36.7 46.9 42.3l20.9 6.6v249z m-709-60h649V688.9c-53.5-28.9-89.3-98.1-89.3-177.2s35.8-148.3 89.3-177.2V187.2H188V336c23 13.2 43.3 34.2 58.3 60.9 18.7 33.2 28.6 73 28.6 114.9s-9.9 81.6-28.6 114.9c-15 26.7-35.3 47.7-58.3 60.9v148.6z" fill="" p-id="2286"></path><path d="M364.707 292.502l48.042-35.946 110.594 147.81L475.3 440.31z" fill="" p-id="2287"></path><path d="M501.277 404.269l110.594-147.81 48.042 35.947-110.594 147.809z" fill="" p-id="2288"></path><path d="M362.5 393.9h300v60h-300zM362.5 535.8h300v60h-300z" fill="" p-id="2289"></path><path d="M483.4 397.7h60v351.2h-60z" fill="" p-id="2290"></path></svg>