<svg t="1697375610739" class="icon" viewBox="0 0 1024 1024" version="1.1" xmlns="http://www.w3.org/2000/svg" p-id="1369" width="200" height="200"><path d="M882.4 728.6h-25.7c0.3-1.8 0.4-3.7 0.4-5.5V261.9c0-25.3-18.2-45.9-40.9-45.9H207.5c-22.6 0-41 20.6-41 46v461.2c0 1.8 0.4 3.6 0.5 5.5h-25.6c-17.5 0-31.6 16-31.6 35.5 0 19.7 14.2 35.5 31.6 35.5h740.8c17.5 0 31.6-16 31.6-35.5 0.2-19.6-14-35.6-31.4-35.6z m-415.3-378h89.4v314.2h-89.4V350.6z m-44.6 269.3h-89.4V440.4h89.3l0.1 179.5z m134 188.5h-134v-17.9h134v17.9z m134-143.6h-89.3V440.4h89.3v224.4z m0 0" p-id="1370"></path></svg>